<?xml version="1.0" encoding="UTF-8"?> <!-- Generator: Adobe Illustrator 25.2.3, SVG Export Plug-In . SVG Version: 6.00 Build 0) --> <svg xmlns="http://www.w3.org/2000/svg" xmlns:xlink="http://www.w3.org/1999/xlink" version="1.1" id="Слой_1" x="0px" y="0px" width="1920px" height="1080px" viewBox="0 0 1920 1080" style="enable-background:new 0 0 1920 1080;" xml:space="preserve"> <rect style="fill:#54DBCC;" width="1920" height="1080"></rect> <g> <g> <rect x="1088.1" y="781.9" style="fill:#1A2F37;" width="154" height="107.2"></rect> </g> </g> <g> <g> <rect x="1030.4" y="874.5" style="fill:#1A2F37;" width="269.3" height="24.4"></rect> </g> </g> <g> <g> <rect x="821.4" y="348.1" style="fill:#1A2F37;" width="687.3" height="455.8"></rect> </g> </g> <g> <g> <rect x="836.1" y="361.4" style="fill:#FFFFFF;" width="658.1" height="389"></rect> </g> </g> <g> <g> <rect x="870.4" y="385.2" style="fill:#FFFFFF;" width="589.5" height="330.9"></rect> </g> </g> <g> <defs> <rect id="SVGID_1_" x="870.4" y="385.2" width="589.5" height="330.9"></rect> </defs> <clipPath id="SVGID_2_"> <use xlink:href="#SVGID_1_" style="overflow:visible;"></use> </clipPath> <g style="clip-path:url(#SVGID_2_);"> <polygon style="fill:#FF525F;" points="731.9,745.9 588.1,413 354.4,626.2 343.1,613.8 594.2,384.7 738.1,717.9 1003.4,481.5 1153.6,583.4 1368.8,456.9 1377.3,471.4 1153,603.3 1004.8,502.8 "></polygon> </g> </g> <g> <g> <polygon style="fill:#E6F9FF;" points="771.8,741.6 434,741.6 434,231.9 700.7,231.9 771.8,305.5 "></polygon> </g> <g> <polygon style="fill:#CDEEFC;" points="700.7,231.9 771.8,305.5 701.2,305.5 "></polygon> </g> </g> <g> <defs> <polygon id="SVGID_3_" points="771.8,741.6 434,741.6 434,231.9 700.7,231.9 771.8,305.5 "></polygon> </defs> <use xlink:href="#SVGID_3_" style="overflow:visible;fill:#FFFFFF;"></use> <clipPath id="SVGID_4_"> <use xlink:href="#SVGID_3_" style="overflow:visible;"></use> </clipPath> <g style="clip-path:url(#SVGID_4_);"> <polygon style="fill:#FFFFFF;" points="731.9,745.9 588.1,413 354.4,626.2 343.1,613.8 594.2,384.7 738.1,717.9 1003.4,481.5 1153.5,583.4 1399.4,434.3 1408.1,448.7 1153,603.4 1004.8,502.8 "></polygon> </g> </g> <g> <polygon style="fill:#1A2F37;" points="514.7,863 564,817.3 958.3,817.3 1001.8,863 "></polygon> </g> <g> <path style="fill:#1A2F37;" d="M952.2,822.5H564.4c-6.4,0-11.6-5.4-11.6-12V567.8c0-6.6,5.2-12,11.6-12h387.8 c6.4,0,11.6,5.4,11.6,12v242.8C963.8,817.2,958.6,822.5,952.2,822.5z"></path> </g> <g> <path style="fill:#6E89FF;" d="M937.1,812.5H579.4c-5.9,0-10.7-4.8-10.7-10.7V585.2c0-5.9,4.8-10.7,10.7-10.7h357.7 c5.9,0,10.7,4.8,10.7,10.7v216.6C947.8,807.7,943,812.5,937.1,812.5z"></path> </g> <g> <path style="fill:#025482;" d="M762.6,563.6c0,2.4-1.9,4.3-4.3,4.3c-2.4,0-4.3-1.9-4.3-4.3c0-2.4,1.9-4.3,4.3-4.3 C760.7,559.3,762.6,561.2,762.6,563.6z"></path> </g> <g> <path style="fill:#1A2F37;" d="M976.9,899.3H539.7c-13.8,0-25-11.2-25-25V863h487.1v11.3C1001.8,888.1,990.7,899.3,976.9,899.3z"></path> </g> <g> <path style="fill:#03436B;" d="M674.2,822.4c0,2.4-1.9,4.3-4.3,4.3h-49.3c-2.4,0-4.3-1.9-4.3-4.3l0,0c0-2.4,1.9-4.3,4.3-4.3h49.3 C672.3,818.1,674.2,820,674.2,822.4L674.2,822.4z"></path> </g> <g> <path style="fill:#03436B;" d="M907.6,822.4c0,2.4-1.9,4.3-4.3,4.3H854c-2.4,0-4.3-1.9-4.3-4.3l0,0c0-2.4,1.9-4.3,4.3-4.3h49.3 C905.6,818.1,907.6,820,907.6,822.4L907.6,822.4z"></path> </g> <g> <polygon style="fill:#571DFF;" points="701,856.4 717.2,841.4 801.2,841.4 815.5,856.4 "></polygon> </g> <g> <rect x="745.6" y="831.5" style="fill:#FFFFFF;" width="27.2" height="2.8"></rect> </g> <g> <g> <rect x="547.4" y="851" style="fill:#FFFFFF;" width="30.4" height="2.8"></rect> </g> <g> <rect x="573.1" y="831.5" style="fill:#FFFFFF;" width="27.2" height="2.8"></rect> </g> <g> <rect x="561.5" y="840.4" style="fill:#FFFFFF;" width="27.2" height="2.8"></rect> </g> <g> <rect x="626" y="831.5" style="fill:#FFFFFF;" width="27.2" height="2.8"></rect> </g> <g> <rect x="612.2" y="840.4" style="fill:#FFFFFF;" width="27.2" height="2.8"></rect> </g> <g> <rect x="645.2" y="851" style="fill:#FFFFFF;" width="30.4" height="2.8"></rect> </g> <g> <rect x="677.5" y="831.5" style="fill:#FFFFFF;" width="27.2" height="2.8"></rect> </g> <g> <rect x="663.7" y="840.4" style="fill:#FFFFFF;" width="27.2" height="2.8"></rect> </g> <g> <rect x="596.6" y="853.2" style="fill:#FFFFFF;" width="30.4" height="2.8"></rect> </g> </g> <g> <g> <rect x="943.8" y="851" style="fill:#FFFFFF;" width="30.4" height="2.8"></rect> </g> <g> <rect x="921.4" y="831.5" style="fill:#FFFFFF;" width="27.2" height="2.8"></rect> </g> <g> <rect x="933" y="840.4" style="fill:#FFFFFF;" width="27.2" height="2.8"></rect> </g> <g> <rect x="868.5" y="831.5" style="fill:#FFFFFF;" width="27.2" height="2.8"></rect> </g> <g> <rect x="882.2" y="840.4" style="fill:#FFFFFF;" width="27.2" height="2.8"></rect> </g> <g> <rect x="846" y="851" style="fill:#FFFFFF;" width="30.4" height="2.8"></rect> </g> <g> <rect x="817" y="831.5" style="fill:#FFFFFF;" width="27.2" height="2.8"></rect> </g> <g> <rect x="830.8" y="840.4" style="fill:#FFFFFF;" width="27.2" height="2.8"></rect> </g> <g> <rect x="894.5" y="853.2" style="fill:#FFFFFF;" width="30.4" height="2.8"></rect> </g> </g> <g> <defs> <path id="SVGID_5_" d="M937.1,812.5H579.4c-5.9,0-10.7-4.8-10.7-10.7V585.2c0-5.9,4.8-10.7,10.7-10.7h357.7 c5.9,0,10.7,4.8,10.7,10.7v216.6C947.8,807.7,943,812.5,937.1,812.5z"></path> </defs> <clipPath id="SVGID_6_"> <use xlink:href="#SVGID_5_" style="overflow:visible;"></use> </clipPath> <g style="clip-path:url(#SVGID_6_);"> <polygon style="fill:#FF525F;" points="731.9,745.9 588.1,413 354.4,626.2 343.1,613.8 594.2,384.7 738.1,717.9 1003.4,481.5 1153.5,583.4 1399.4,434.3 1408.1,448.7 1153,603.4 1004.8,502.8 "></polygon> </g> </g> <g> <polygon style="fill:#FF525F;" points="1362.3,537.7 1346.5,531.8 1370.7,466.3 1296.5,460.6 1297.8,443.8 1394.1,451.3 "></polygon> </g> <g> <path style="fill:#4F63DF;" d="M1392.2,858.9c-39.1,10.7-46.2,40.8-28.4,49.7c17.8,8.9,58.6,14.2,78.1,7.1 c19.5-7.1,23.1-51.5,8.9-53.3C1436.6,860.7,1392.2,858.9,1392.2,858.9z"></path> </g> <g> <g> <path style="fill:#FF525F;" d="M1360.9,747.1c-13.2,1.9-44.9,76.2-35.4,93.2c9.4,17,61.4,36.9,61.4,36.9l-2.8-29.3 c0,0-35.6-15.1-32.8-24.6c2.8-9.4,23.3-44.7,23.3-44.7L1360.9,747.1z"></path> </g> </g> <g> <g> <path style="fill:#FF525F;" d="M1449.5,747.1c13.2,1.9,44.9,76.2,35.5,93.2c-9.4,17-61.4,36.9-61.4,36.9l2.8-29.3 c0,0,35.6-15.1,32.8-24.6c-2.8-9.4-23.3-44.7-23.3-44.7L1449.5,747.1z"></path> </g> </g> <g> <g> <path style="fill:#FF525F;" d="M1369.1,744.9h72.7c10.9,0,19.7,8.7,19.3,19.2c0,0-13.9,56.6-14,75.5c-0.1,10.4,3.3,41.5,3.3,41.5 h-89.9c0,0,4.1-32.5,4.1-43.4c-0.1-18.5-14.8-73.7-14.8-73.7C1349.4,753.6,1358.1,744.9,1369.1,744.9z"></path> </g> </g> <g> <g> <g> <path style="fill:#FCA89E;" d="M1414.7,759.2c0,0-0.9,7.6-9,7.2c-8.9-0.4-9.6-7.2-9.6-7.2v-35.4h18.6V759.2z"></path> </g> </g> </g> <g> <g> <g> <path style="fill:#FCA89E;" d="M1428.4,722.2c0,12.7-10.3,31.6-23,31.6c-12.7,0-23-18.9-23-31.6c0-12.7,10.3-23,23-23 C1418.1,699.3,1428.4,709.5,1428.4,722.2z"></path> </g> </g> </g> <g> <g> <rect x="1344.6" y="816.3" style="fill:#1A2F37;" width="121.7" height="72.6"></rect> </g> </g> <g> <g> <g> <path style="fill:#571DFF;" d="M1416.6,851.4c0,6.2-5,11.2-11.2,11.2c-6.2,0-11.2-5-11.2-11.2c0-6.2,5-11.2,11.2-11.2 C1411.6,840.2,1416.6,845.2,1416.6,851.4z"></path> </g> </g> </g> <g> <g> <g> <path style="fill:#1A2F37;" d="M1397.3,927.6c0,0-2.2,2-8.5,4.7c-6.5,2.7-19.4,7.8-17.5,13.5c2.6,7.6,11.7,7,17.7,5.2 c13.1-3.9,26.7-13.1,26.7-13.1L1397.3,927.6z"></path> </g> </g> </g> <g> <g> <g> <path style="fill:#6E89FF;" d="M1412.9,907.9c22.1-16.1,33.6-28,58.5-43.1c5.9-3.6,9.9-4.7,20.2-0.6c8.7,3.4,7.8,18.4,3,24.7 c-14.3,18.8-69.3,44.7-80.4,48.6c-4.8,1.7-21.7-12.6-14.9-19.4C1402.7,914.6,1406.9,912.2,1412.9,907.9z"></path> </g> </g> </g> <g> <g> <g> <path style="fill:#1A2F37;" d="M1402.7,939c0,0,5.4,7.1,11.7,12c7.5,5.8,12.7,7.7,18.7,4.9c8.8-4.1,0.7-12.8-6.1-19.6 c-10.1-10.1-17.4-14.4-17.4-14.4L1402.7,939z"></path> </g> </g> </g> <g> <g> <g> <path style="fill:#1A2F37;" d="M1382.9,726.7c0,0,7.9-10.6,10.4-18.2c2.5-7.6,4,0.5,14.9,8.7c5.7,4.3,20,9.7,20,9.7 s3.3-14.4-1.8-21.7c-12-17.5-36.7-16.3-44.2,4.1C1378.4,719.6,1382.9,726.7,1382.9,726.7z"></path> </g> </g> </g> <g> <g> <g> <path style="fill:#F59762;" d="M1403.8,917.8l9.4,7.8c0,0,3.3,2.7,4.9,5.7c3.1,5.7-7.5,17.4-14.4,10.5s-13-14.2-13-14.2 L1403.8,917.8z"></path> </g> </g> </g> <g> <g> <g> <path style="fill:#6E89FF;" d="M1375.7,930.1c-25.7-12.9-41.4-17.6-57.9-40.8c-4.2-5.9-5.9-15.7-4.3-20.6c2-6,10.7-9.5,20.9-7.1 c8.6,2.1,66.3,47.3,75.3,55.8c3.9,3.7-7.9,22-17.6,18.9C1387.4,934.7,1382.7,933.6,1375.7,930.1z"></path> </g> </g> </g> <g> <g> <g> <path style="fill:#6E89FF;" d="M1227.6,319.3c33.1,46,22.6,110.1-23.4,143.2c-46,33.1-110.1,22.6-143.2-23.4 c-33.1-46-22.6-110.1,23.4-143.2C1130.4,262.9,1194.5,273.3,1227.6,319.3z"></path> </g> </g> </g> <g> <g> <g> <path style="fill:#E6F9FF;" d="M1116.5,280.5c-11.2,3.2-22.1,8.3-32.1,15.5c-7.7,5.5-14.4,11.9-20,19l79.9,64.3L1116.5,280.5z"></path> </g> </g> </g> <g> <g> <g> <path style="fill:#FFD500;" d="M1064.4,314.9c-21.3,26.4-28,61.8-18.2,94.1l98.2-29.8L1064.4,314.9z"></path> </g> </g> </g> <g> <g> <g> <path style="fill:#FF525F;" d="M1046.2,409.2c3.2,10.4,8.1,20.5,14.8,29.9c19.9,27.6,51,42.4,82.6,42.7l0.7-102.6L1046.2,409.2z"></path> </g> </g> </g> <g> <g> <g> <path style="fill:#54DBCC;" d="M1193.6,469.1c3.6-2,7.2-4.2,10.6-6.7c18.1-13,30.6-30.8,37.2-50.3l-97.1-32.9L1193.6,469.1z"></path> </g> </g> </g> <g> <g> <path style="fill:#1A2F37;" d="M1241.5,412.1c3-8.9,4.8-18.1,5.3-27.5l-102.4-5.4L1241.5,412.1z"></path> </g> </g> <g> <g> <path style="fill:#FF525F;" d="M1144.3,379.2l-0.9,102.6c17.2,0.2,34.6-4,50.4-12.7L1144.3,379.2z"></path> </g> </g> <g> <g> <rect x="482.7" y="281.1" style="fill:#54DBCC;" width="37.4" height="32.6"></rect> </g> </g> <g> <g> <rect x="519.8" y="255.8" style="fill:#6E89FF;" width="37.4" height="57.9"></rect> </g> </g> <g> <g> <g> <rect x="556.8" y="229" style="fill:#FFD500;" width="37.4" height="84.6"></rect> </g> </g> </g> <g> <g> <g> <rect x="593.9" y="203" style="fill:#1A2F37;" width="37.4" height="110.6"></rect> </g> </g> </g> <g> <g> <rect x="631" y="176.8" style="fill:#FF525F;" width="37.4" height="136.8"></rect> </g> </g> <g> <path style="fill:#E6F9FF;" d="M909.1,678.9c5.9-7.6,14.9-11.6,24-11.1l4.1-55.2c-28.1-1.8-56.4,10.6-73.8,35.1L909.1,678.9z"></path> </g> <g> <path style="fill:#FFD500;" d="M953.6,714.7c-9.3,11.1-25.7,13.6-37.9,5.2c-12.6-8.6-16.1-25.4-8.4-38.3l-45.7-31.2 c-25,38.1-14.9,89.4,22.9,115.2c37.5,25.5,88.3,16.6,114.9-19.7L953.6,714.7z"></path> </g> <g> <path style="fill:#FF525F;" d="M936.3,668.1c4,0.6,7.9,2.2,11.5,4.6c12.9,8.8,16.3,26.3,7.7,39.3l45.7,31.2 c25.8-38.2,15.9-90.2-22.3-116.2c-11.9-8.1-25.1-12.7-38.5-14.1L936.3,668.1z"></path> </g> </svg> 